<svg width="79" height="70" viewBox="0 0 79 70" fill="none" xmlns="http://www.w3.org/2000/svg">
<path d="M50.6983 61.25V40.9325H58.3777L59.5265 33.0342H50.6983V27.9942C50.6983 25.7075 51.4158 24.1471 55.1157 24.1471H59.8359V17.0829C57.5508 16.8681 55.2542 16.7639 52.9563 16.7708C46.1525 16.7708 41.4948 20.4517 41.4948 27.2125V33.0342H33.7988V40.9325H41.4948V61.25H13.1667C12.2937 61.25 11.4564 60.9427 10.8391 60.3957C10.2218 59.8488 9.875 59.1069 9.875 58.3333V11.6667C9.875 10.8931 10.2218 10.1513 10.8391 9.60427C11.4564 9.05729 12.2937 8.75 13.1667 8.75H65.8333C66.7063 8.75 67.5436 9.05729 68.1609 9.60427C68.7782 10.1513 69.125 10.8931 69.125 11.6667V58.3333C69.125 59.1069 68.7782 59.8488 68.1609 60.3957C67.5436 60.9427 66.7063 61.25 65.8333 61.25H50.6983Z" fill="black"/>
</svg>
