<svg width="79" height="70" viewBox="0 0 79 70" fill="none" xmlns="http://www.w3.org/2000/svg">
<path d="M72.4167 19.1041C72.3797 17.8458 72.2698 16.5899 72.0875 15.3416C71.8417 14.2482 71.4321 13.1888 70.8696 12.1916C70.2812 11.1098 69.4911 10.1237 68.5325 9.27492C67.565 8.43551 66.4542 7.73664 65.2408 7.20409C64.1139 6.71538 62.9183 6.36226 61.6858 6.15408C60.2904 5.96888 58.8832 5.86172 57.4725 5.83325H21.5604C20.1403 5.86602 18.723 5.96337 17.3142 6.12492C16.0802 6.3427 14.8846 6.70564 13.7592 7.20409C12.5383 7.7254 11.4255 8.42551 10.4675 9.27492C9.52017 10.1322 8.73145 11.1165 8.13042 12.1916C7.57888 13.1901 7.18035 14.2495 6.94542 15.3416C6.73639 16.5781 6.61546 17.825 6.58333 19.0749V50.8958C6.62032 52.1541 6.73019 53.4099 6.9125 54.6582C7.15828 55.7516 7.56788 56.811 8.13042 57.8082C8.71876 58.89 9.50888 59.8761 10.4675 60.7249C11.435 61.5643 12.5458 62.2632 13.7592 62.7957C14.8861 63.2845 16.0817 63.6376 17.3142 63.8457C18.7096 64.031 20.1168 64.1381 21.5275 64.1666H57.4396C58.8597 64.1338 60.277 64.0365 61.6858 63.8749C62.9198 63.6571 64.1154 63.2942 65.2408 62.7957C66.4617 62.2744 67.5745 61.5743 68.5325 60.7249C69.4798 59.8677 70.2686 58.8833 70.8696 57.8082C71.4211 56.8097 71.8196 55.7503 72.0546 54.6582C72.2636 53.4218 72.3845 52.1749 72.4167 50.9249V19.1041ZM40.2571 55.4166C36.304 55.3993 32.4201 54.4963 28.9667 52.7916L16.4583 55.7083L19.75 44.8582C17.6272 41.6979 16.4912 38.0942 16.4583 34.4166C16.4714 30.2834 17.8645 26.2462 20.4622 22.8132C23.0598 19.3803 26.7458 16.7052 31.056 15.1249C35.3661 13.5446 40.1076 13.1298 44.6833 13.9327C49.2591 14.7355 53.4643 16.7202 56.7695 19.6367C60.0747 22.5532 62.332 26.2711 63.2571 30.3221C64.1822 34.3732 63.7338 38.5762 61.9682 42.4019C60.2027 46.2275 57.199 49.5047 53.3355 51.8207C49.4721 54.1366 44.9215 55.3878 40.2571 55.4166ZM40.2571 17.1208C36.7673 17.1561 33.3504 18.0103 30.3543 19.5962C27.3582 21.1822 24.8899 23.4433 23.2006 26.1494C21.5114 28.8554 20.6616 31.9098 20.7378 35.0015C20.8139 38.0931 21.8133 41.1117 23.6342 43.7499L24.095 44.4207L22.12 50.8083L29.625 48.9999L30.3492 49.3791C33.3432 50.9417 36.7495 51.7768 40.2242 51.7999C45.4622 51.7999 50.4857 49.9562 54.1895 46.6743C57.8934 43.3924 59.9742 38.9412 59.9742 34.2999C59.9742 29.6586 57.8934 25.2074 54.1895 21.9255C50.4857 18.6437 45.4622 16.7999 40.2242 16.7999L40.2571 17.1208ZM51.7779 41.9708C51.3468 42.6079 50.7695 43.1579 50.0834 43.5849C49.3973 44.012 48.6177 44.3067 47.795 44.4499C46.5657 44.649 45.3001 44.5789 44.1083 44.2458C42.987 43.9351 41.8878 43.565 40.8167 43.1374C36.7473 41.3281 33.2769 38.6148 30.7442 35.2624C29.3679 33.7092 28.5328 31.834 28.3412 29.8666C28.3216 29.0493 28.4961 28.2375 28.8534 27.4838C29.2106 26.7301 29.7427 26.0514 30.415 25.4916C30.613 25.2926 30.856 25.1327 31.1282 25.0222C31.4003 24.9117 31.6956 24.853 31.995 24.8499H32.9167C33.2788 24.8499 33.7725 24.8499 34.2333 25.7541C34.6942 26.6583 35.9121 29.3708 36.0767 29.6332C36.1576 29.7732 36.1997 29.9281 36.1997 30.0853C36.1997 30.2425 36.1576 30.3975 36.0767 30.5374C35.9312 30.8544 35.7313 31.1495 35.4842 31.4124C35.1879 31.7333 34.8588 32.1124 34.5954 32.3458C34.3321 32.5791 34.0029 32.8708 34.3321 33.3958C35.2277 34.7351 36.3363 35.9531 37.6238 37.0124C39.0258 38.1101 40.6287 38.988 42.3638 39.6082C42.9563 39.8708 43.3183 39.8416 43.6475 39.6082C43.9767 39.3749 45.1288 38.0916 45.5238 37.5666C45.9188 37.0416 46.3137 37.1291 46.8404 37.3041C47.3671 37.4791 50.2967 38.7332 50.8892 38.9958C51.4817 39.2583 51.8438 39.3749 52.0083 39.6082C52.1511 40.3716 52.0718 41.1546 51.7779 41.8832V41.9708Z" fill="black"/>
</svg>
