<svg width="79" height="70" viewBox="0 0 79 70" fill="none" xmlns="http://www.w3.org/2000/svg">
<path opacity="0.5" d="M68.9143 22.0617C68.8894 20.0309 68.4696 18.019 67.6734 16.1146C67.0947 14.7231 66.1713 13.4643 64.9709 12.4308C63.8044 11.3681 62.3838 10.5509 60.8135 10.0392C58.6638 9.3346 56.3937 8.9617 54.1018 8.93667C50.2901 8.785 49.1479 8.75 39.5 8.75C29.8554 8.75 28.7066 8.77917 24.8982 8.93667C22.6063 8.9588 20.3358 9.33077 18.1865 10.0362C16.6155 10.5481 15.1947 11.3665 14.0291 12.4308C12.8317 13.467 11.9097 14.7263 11.3299 16.1175C10.5353 18.0214 10.1144 20.0319 10.0857 22.0617C9.9145 25.4421 9.875 26.4542 9.875 35.0029C9.875 43.5517 9.90792 44.5667 10.0857 47.9413C10.1117 49.9722 10.5326 51.984 11.3299 53.8883C11.906 55.2767 12.8309 56.5367 14.0324 57.5662C15.199 58.6301 16.6195 59.4493 18.1898 59.9638C20.3359 60.6696 22.6072 61.0429 24.8982 61.0633C28.7066 61.2208 29.8554 61.25 39.5 61.25C49.1446 61.25 50.2967 61.2208 54.1018 61.0633C56.3938 61.0413 58.6642 60.6693 60.8135 59.9638C62.3722 59.4315 63.7879 58.6159 64.9693 57.5695C66.1508 56.5232 67.0719 55.2692 67.6734 53.8883C68.468 51.9825 68.8878 49.97 68.9143 47.9383C69.0921 44.5667 69.125 43.5517 69.125 35C69.125 26.4483 69.0921 25.4392 68.9143 22.0617Z" fill="black"/>
<path d="M58.5686 22.2192C58.162 21.2845 57.539 20.4357 56.7396 19.7274C55.9402 19.0191 54.9822 18.467 53.9274 18.1067C52.4723 17.6301 50.936 17.3776 49.3849 17.36C46.8042 17.255 46.0274 17.2317 39.5 17.2317C32.9726 17.2317 32.1991 17.255 29.625 17.36C28.0739 17.3748 26.5372 17.6264 25.0825 18.1038C22.9462 18.8329 21.2642 20.3263 20.4413 22.2163C19.9014 23.5084 19.6183 24.8704 19.5986 26.2413C19.4801 28.5279 19.457 29.2134 19.457 35C19.457 40.7867 19.4801 41.475 19.5986 43.7588C19.615 45.1325 19.9014 46.4946 20.438 47.7838C20.8448 48.7183 21.4679 49.5671 22.2672 50.2754C23.0666 50.9837 24.0245 51.5358 25.0792 51.8963C26.5374 52.3717 28.0746 52.6254 29.6217 52.64C32.1991 52.745 32.9726 52.7654 39.5033 52.7654C46.034 52.7654 46.8108 52.745 49.3882 52.64C50.9395 52.6241 52.4761 52.3715 53.9307 51.8934C54.9854 51.5329 55.9433 50.9808 56.7426 50.2725C57.542 49.5642 58.1651 48.7154 58.5719 47.7809C59.1118 46.4946 59.3948 45.1325 59.4146 43.7559C59.5331 41.4721 59.5561 40.7867 59.5561 35C59.5561 29.2134 59.5331 28.5279 59.4146 26.2442C59.3967 24.8696 59.1116 23.508 58.5719 22.2192H58.5686ZM39.5 46.1271C37.8509 46.1271 36.218 45.8393 34.6944 45.2801C33.1708 44.7209 31.7865 43.9013 30.6204 42.8681C29.4543 41.8348 28.5293 40.6082 27.8982 39.2582C27.2671 37.9082 26.9423 36.4613 26.9423 35C26.9423 33.5388 27.2671 32.0919 27.8982 30.7419C28.5293 29.3919 29.4543 28.1652 30.6204 27.132C31.7865 26.0987 33.1708 25.2791 34.6944 24.7199C36.218 24.1608 37.8509 23.8729 39.5 23.8729C42.8305 23.8729 46.0246 25.0453 48.3797 27.132C50.7347 29.2187 52.0577 32.0489 52.0577 35C52.0577 37.9511 50.7347 40.7813 48.3797 42.8681C46.0246 44.9548 42.8305 46.1271 39.5 46.1271ZM52.5548 26.0313C51.7935 26.0087 51.0719 25.7248 50.5424 25.2397C50.0129 24.7545 49.7169 24.106 49.7169 23.4311C49.7169 22.7561 50.0129 22.1076 50.5424 21.6225C51.0719 21.1373 51.7935 20.8535 52.5548 20.8309H52.558C53.3195 20.8515 54.042 21.1335 54.5731 21.6174C55.1042 22.1012 55.4023 22.749 55.4045 23.424C55.4066 24.099 55.1126 24.7483 54.5846 25.2348C54.0565 25.7213 53.3358 26.0069 52.5745 26.0313H52.5548Z" fill="black"/>
<path d="M39.5 27.7754C37.8874 27.7754 36.311 28.1991 34.9702 28.993C33.6294 29.7868 32.5843 30.9151 31.9672 32.2352C31.3501 33.5554 31.1886 35.008 31.5032 36.4094C31.8178 37.8109 32.5944 39.0982 33.7346 40.1085C34.8749 41.1189 36.3277 41.807 37.9093 42.0857C39.491 42.3645 41.1303 42.2214 42.6202 41.6746C44.11 41.1278 45.3834 40.2018 46.2794 39.0137C47.1753 37.8257 47.6535 36.4289 47.6535 35C47.6535 33.0844 46.7949 31.2472 45.2665 29.8925C43.7382 28.5377 41.6652 27.7762 39.5033 27.7754H39.5Z" fill="black"/>
<path d="M72.1862 20.6208C72.1567 18.3656 71.689 16.1319 70.8037 14.0174C70.1598 12.4715 69.1329 11.0732 67.7985 9.92534C66.5033 8.74273 64.9251 7.83273 63.1802 7.26242C60.7922 6.47974 58.2706 6.06541 55.7246 6.03742C51.4883 5.87409 50.221 5.83325 39.5 5.83325C28.7856 5.83325 27.5117 5.86825 23.2787 6.03742C20.7327 6.06478 18.2108 6.47913 15.823 7.26242C14.0774 7.8313 12.4989 8.74149 11.2048 9.92534C9.87276 11.0748 8.84617 12.4727 8.19954 14.0174C7.31635 16.1334 6.84876 18.3678 6.81704 20.6237C6.62941 24.3774 6.58333 25.5033 6.58333 35.0028C6.58333 44.5024 6.62283 45.6283 6.81704 49.3791C6.84995 51.6337 7.31408 53.8707 8.19954 55.9853C8.84141 57.5312 9.86841 58.9312 11.2015 60.0745C12.4977 61.256 14.0756 62.1659 15.8197 62.7374C18.2071 63.5223 20.7292 63.9367 23.2754 63.9624C27.5085 64.1345 28.7823 64.1666 39.5 64.1666C50.221 64.1666 51.4915 64.1316 55.7279 63.9624C58.273 63.9363 60.794 63.5219 63.1802 62.7374C64.9125 62.1458 66.4857 61.2394 67.7987 60.0765C69.1117 58.9136 70.1353 57.5199 70.8037 55.9853C71.6859 53.8678 72.1533 51.6337 72.1862 49.3791C72.3772 45.6253 72.4167 44.4966 72.4167 34.9999C72.4167 25.5003 72.3772 24.3774 72.1862 20.6208ZM63.809 43.9337C63.77 45.7319 63.386 47.5112 62.6733 49.1953C62.0448 50.6348 61.084 51.9422 59.8522 53.0336C58.6205 54.125 57.1451 54.9764 55.5205 55.5333C53.6207 56.1636 51.6139 56.5038 49.5857 56.5395C46.9754 56.6474 46.1426 56.6707 39.5 56.6707C32.8574 56.6707 32.0279 56.6445 29.4176 56.5395C27.3894 56.5037 25.3826 56.1634 23.4827 55.5333C21.8574 54.9769 20.3813 54.1257 19.149 53.0342C17.9167 51.9428 16.9553 50.6352 16.3267 49.1953C15.6149 47.511 15.2309 45.7318 15.191 43.9337C15.0758 41.6237 15.0429 40.8857 15.0429 34.9999C15.0429 29.1141 15.0725 28.3762 15.191 26.0662C15.2309 24.268 15.6149 22.4888 16.3267 20.8045C16.9552 19.3645 17.9164 18.0569 19.1488 16.9654C20.3811 15.874 21.8573 15.0228 23.4827 14.4666C25.3826 13.8362 27.3893 13.496 29.4176 13.4603C32.0279 13.3524 32.864 13.3291 39.5033 13.3291C46.1426 13.3291 46.9754 13.3553 49.5857 13.4603C51.6151 13.4952 53.6231 13.8355 55.5238 14.4666C57.1478 15.0238 58.6226 15.8754 59.8537 16.9668C61.0848 18.0581 62.0452 19.3653 62.6733 20.8045C63.3876 22.4903 63.7695 24.2666 63.809 26.0662C63.9275 28.3762 63.9571 29.1141 63.9571 34.9999C63.9571 40.8857 63.9275 41.6208 63.809 43.9337Z" fill="black"/>
</svg>
