<svg width="130" height="94" viewBox="0 0 130 94" fill="none" xmlns="http://www.w3.org/2000/svg">
<path fill-rule="evenodd" clip-rule="evenodd" d="M39.2708 68.5417C41.0666 68.5417 42.7888 68.0259 44.0585 67.1077C45.3283 66.1896 46.0417 64.9443 46.0417 63.6458C46.0417 62.3474 45.3283 61.1021 44.0585 60.184C42.7888 59.2658 41.0666 58.75 39.2708 58.75C37.4751 58.75 35.7529 59.2658 34.4831 60.184C33.2134 61.1021 32.5 62.3474 32.5 63.6458C32.5 64.9443 33.2134 66.1896 34.4831 67.1077C35.7529 68.0259 37.4751 68.5417 39.2708 68.5417ZM39.2708 74.4167C43.2215 74.4167 47.0103 73.2819 49.8038 71.262C52.5973 69.242 54.1667 66.5024 54.1667 63.6458C54.1667 60.7892 52.5973 58.0496 49.8038 56.0297C47.0103 54.0098 43.2215 52.875 39.2708 52.875C35.3202 52.875 31.5314 54.0098 28.7379 56.0297C25.9444 58.0496 24.375 60.7892 24.375 63.6458C24.375 66.5024 25.9444 69.242 28.7379 71.262C31.5314 73.2819 35.3202 74.4167 39.2708 74.4167ZM102.917 68.5417C104.712 68.5417 106.435 68.0259 107.704 67.1077C108.974 66.1896 109.688 64.9443 109.688 63.6458C109.688 62.3474 108.974 61.1021 107.704 60.184C106.435 59.2658 104.712 58.75 102.917 58.75C101.121 58.75 99.3987 59.2658 98.129 60.184C96.8592 61.1021 96.1458 62.3474 96.1458 63.6458C96.1458 64.9443 96.8592 66.1896 98.129 67.1077C99.3987 68.0259 101.121 68.5417 102.917 68.5417ZM102.917 74.4167C106.867 74.4167 110.656 73.2819 113.45 71.262C116.243 69.242 117.812 66.5024 117.812 63.6458C117.812 60.7892 116.243 58.0496 113.45 56.0297C110.656 54.0098 106.867 52.875 102.917 52.875C98.966 52.875 95.1772 54.0098 92.3837 56.0297C89.5902 58.0496 88.0208 60.7892 88.0208 63.6458C88.0208 66.5024 89.5902 69.242 92.3837 71.262C95.1772 73.2819 98.966 74.4167 102.917 74.4167Z" fill="black"/>
<path d="M90.3446 65.1733C88.8713 65.3613 87.4413 64.6445 87.4521 63.5635C87.4784 61.0452 88.7243 58.6132 90.9731 56.6902C93.222 54.7672 96.3317 53.4748 99.7616 53.0376C103.192 52.6004 106.725 53.0461 109.748 54.2972C112.77 55.5483 115.091 57.5257 116.307 59.8858C116.829 60.8982 115.822 61.9244 114.349 62.1124L90.3446 65.1733Z" fill="black"/>
<path fill-rule="evenodd" clip-rule="evenodd" d="M109.338 56.4235C107.554 55.5197 105.467 54.9784 103.295 54.8559C101.123 54.7334 98.9447 55.0341 96.988 55.7267C95.0312 56.4194 93.367 57.4787 92.1686 58.7943C90.9702 60.1099 90.2814 61.6337 90.1739 63.2071L113.579 60.2226C112.689 58.6927 111.218 57.3757 109.338 56.4235ZM99.2902 51.1066C103.344 50.5899 107.521 51.1169 111.093 52.596C114.666 54.075 117.408 56.4126 118.844 59.2023C120.079 61.5954 117.604 63.6869 114.82 64.0394L90.8158 67.1023C88.0344 67.4548 84.7193 66.1035 84.7437 63.5498C84.7736 60.5732 86.2453 57.6983 88.9029 55.4249C91.5606 53.1515 95.236 51.6235 99.2902 51.1066Z" fill="black"/>
<path d="M24.375 41.125C24.375 39.5669 25.231 38.0725 26.7548 36.9707C28.2785 35.869 30.3451 35.25 32.5 35.25H56.875C59.0299 35.25 61.0965 35.869 62.6202 36.9707C64.144 38.0725 65 39.5669 65 41.125V43.0833H24.375V41.125Z" fill="black"/>
<path fill-rule="evenodd" clip-rule="evenodd" d="M64.5396 39.1667C64.8375 39.7796 65 40.4396 65 41.125V43.0833H24.375V41.125C24.3732 40.3531 24.5822 39.5886 24.9899 38.8752C25.3975 38.1618 25.996 37.5137 26.7508 36.9679C27.5056 36.4221 28.402 35.9894 29.3886 35.6946C30.3752 35.3998 31.4325 35.2487 32.5 35.25H56.875C60.4121 35.25 63.4238 36.8852 64.5396 39.1667Z" fill="black"/>
<path d="M10.8333 63.8417C10.8333 54.5396 23.0641 47 38.1496 47H60.0058C61.2679 47 62.2916 47.6306 62.2916 48.41V61.1C62.2916 63.0466 59.7323 64.625 56.5744 64.625H12.1035C11.4021 64.625 10.8333 64.2725 10.8333 63.8417Z" fill="black"/>
<path fill-rule="evenodd" clip-rule="evenodd" d="M56.875 50.9167H38.1496C27.2973 50.9167 19.24 55.3856 16.9271 60.7083H56.5744C56.6756 60.7089 56.7766 60.7004 56.875 60.6829V50.9167ZM38.1496 47C23.0641 47 10.8333 54.5396 10.8333 63.8417C10.8333 64.2725 11.4021 64.625 12.1062 64.625H56.5744C59.7323 64.625 62.2916 63.0466 62.2916 61.1V48.41C62.2916 47.6306 61.2679 47 60.0058 47H38.1496ZM83.4302 36.3525L78.5416 64.625H88.0208L94.7916 56.1474V37.2083H88.0208C86.4148 37.2102 84.8347 36.9156 83.4302 36.3525Z" fill="black"/>
<path d="M78.5416 26.4374C78.5416 24.6196 79.5403 22.8762 81.318 21.5908C83.0957 20.3054 85.5068 19.5833 88.0208 19.5833H98.5427C99.4635 19.5833 100.208 20.1218 100.208 20.7876V32.0872C100.208 32.753 99.4608 33.2916 98.5427 33.2916H88.0208C85.5068 33.2916 83.0957 32.5695 81.318 31.284C79.5403 29.9986 78.5416 28.2553 78.5416 26.4374Z" fill="black"/>
<path fill-rule="evenodd" clip-rule="evenodd" d="M94.7916 23.4999H88.0208C86.9434 23.4999 85.91 23.8094 85.1482 24.3603C84.3863 24.9112 83.9583 25.6583 83.9583 26.4374C83.9583 27.2165 84.3863 27.9637 85.1482 28.5145C85.91 29.0654 86.9434 29.3749 88.0208 29.3749H94.7916V23.4999ZM88.0208 19.5833C85.5068 19.5833 83.0957 20.3054 81.318 21.5908C79.5403 22.8762 78.5416 24.6196 78.5416 26.4374C78.5416 28.2553 79.5403 29.9986 81.318 31.284C83.0957 32.5695 85.5068 33.2916 88.0208 33.2916H98.5427C99.4635 33.2916 100.208 32.7511 100.208 32.0872V20.7876C100.208 20.4682 100.033 20.1619 99.7204 19.936C99.4081 19.7101 98.9844 19.5833 98.5427 19.5833H88.0208Z" fill="black"/>
<path d="M68.6454 21.5415L81.984 23.2374L81.0442 27.0953L67.7083 25.3994L68.6454 21.5415ZM56.875 50.9165H83.9583L79.1781 64.6248H56.875V50.9165Z" fill="black"/>
</svg>
